<mxfile host="app.diagrams.net" modified="2021-06-16T11:08:44.917Z" agent="5.0 (Macintosh; Intel Mac OS X 10_15_7) AppleWebKit/537.36 (KHTML, like Gecko) Chrome/91.0.4472.101 Safari/537.36" etag="QF4pPH1kRWa5dZTnFV6U" version="14.7.7" type="github">
  <diagram id="kgpKYQtTHZ0yAKxKKP6v" name="Page-1">
    <mxGraphModel dx="1426" dy="800" grid="1" gridSize="10" guides="1" tooltips="1" connect="1" arrows="1" fold="1" page="1" pageScale="1" pageWidth="850" pageHeight="1100" math="0" shadow="0">
      <root>
        <mxCell id="0" />
        <mxCell id="1" parent="0" />
        <mxCell id="2VjHeU6Kj2DrrdjrndzW-1" value="intercompany process" style="swimlane;html=1;childLayout=stackLayout;resizeParent=1;resizeParentMax=0;horizontal=0;startSize=20;horizontalStack=0;" vertex="1" parent="1">
          <mxGeometry x="180" y="230" width="480" height="360" as="geometry" />
        </mxCell>
        <mxCell id="2VjHeU6Kj2DrrdjrndzW-2" value="Cepro INT" style="swimlane;html=1;startSize=20;horizontal=0;" vertex="1" parent="2VjHeU6Kj2DrrdjrndzW-1">
          <mxGeometry x="20" width="460" height="120" as="geometry" />
        </mxCell>
        <mxCell id="2VjHeU6Kj2DrrdjrndzW-3" value="cepro (DE/FR)" style="swimlane;html=1;startSize=20;horizontal=0;" vertex="1" parent="2VjHeU6Kj2DrrdjrndzW-1">
          <mxGeometry x="20" y="120" width="460" height="120" as="geometry" />
        </mxCell>
        <mxCell id="2VjHeU6Kj2DrrdjrndzW-4" value="client" style="swimlane;html=1;startSize=20;horizontal=0;" vertex="1" parent="2VjHeU6Kj2DrrdjrndzW-1">
          <mxGeometry x="20" y="240" width="460" height="120" as="geometry" />
        </mxCell>
      </root>
    </mxGraphModel>
  </diagram>
</mxfile>
